<?xml version="1.0" encoding="iso-8859-1"?>
<!-- Uploaded to: SVG Repo, www.svgrepo.com, Generator: SVG Repo Mixer Tools -->
<svg version="1.1" id="Layer_1" xmlns="http://www.w3.org/2000/svg" xmlns:xlink="http://www.w3.org/1999/xlink" 
	 viewBox="0 0 480 480" xml:space="preserve">
<path style="fill:#9CD9F1;" d="M240,64c28.152,0,51.456-24,55.36-48H184.64C188.544,40,211.84,64,240,64z"/>
<path style="fill:#DA544A;" d="M229.208,279.344c-0.264-0.104-0.504-0.28-0.752-0.408c-0.608-0.304-1.16-0.704-1.672-1.152
	c-0.208-0.184-0.416-0.36-0.608-0.56c-0.576-0.624-1.072-1.328-1.432-2.128c-0.032-0.072-0.088-0.128-0.12-0.2
	c0-0.008-0.008-0.016-0.016-0.024c-0.376-0.896-0.512-1.832-0.552-2.768c0-0.104-0.056-0.192-0.056-0.296V192h-48v79.808
	c0,4.424-3.584,8.192-8,8.192h-4.688L200,316.688L236.688,280H232C231.016,280,230.088,279.672,229.208,279.344z"/>
<path style="fill:#51B59F;" d="M251.312,264H256c0.984,0,1.912,0.136,2.792,0.472c0.272,0.104,0.504,0.184,0.76,0.312
	c0.608,0.304,1.16,0.656,1.664,1.096c0.208,0.184,0.424,0.336,0.608,0.536c0.576,0.624,1.064,1.312,1.424,2.112
	c0.032,0.072,0.088,0.12,0.12,0.2c0,0.008,0.008,0.016,0.016,0.024c0.376,0.896,0.52,1.832,0.552,2.768
	c0,0.104,0.056,0.192,0.056,0.296V352h48v-80.192C312,267.392,315.584,264,320,264h4.688L288,227.312L251.312,264z"/>
<path style="fill:#9CD9F1;" d="M240,80c-36.992,0-67.536-32-71.528-64H16v112h80c4.416,0,8,3.392,8,7.808v304
	c0,13.24,10.768,24.192,24,24.192h224c13.232,0,24-10.952,24-24.192v-304c0-4.416,3.584-7.808,8-7.808h80V16H311.528
	C307.528,48,276.992,80,240,80z M224,111.808h16v16h-16V111.808z M192,111.808h16v16h-16V111.808z M192,143.808h16v16h-16V143.808z
	 M160,111.808h16v16h-16V111.808z M264,431.808h-16v-16h16V431.808z M296,431.808h-16v-16h16V431.808z M296,399.808h-16v-16h16
	V399.808z M328,431.808h-16v-16h16V431.808z M351.392,274.968c-1.24,2.992-4.16,5.032-7.392,5.032h-16v79.808
	c0,4.424-3.584,8.192-8,8.192h-64c-4.416,0-8-3.768-8-8.192V291.12l-42.344,42.344c-1.56,1.56-3.608,2.344-5.656,2.344
	s-4.096-0.784-5.656-2.344l-56-56c-2.288-2.288-2.976-5.632-1.736-8.624S140.768,264,144,264h16v-80.192
	c0-4.416,3.584-7.808,8-7.808h64c4.416,0,8,3.392,8,7.808v68.688l42.344-42.344c3.128-3.128,8.184-3.128,11.312,0l56,56.048
	C351.944,268.488,352.632,271.976,351.392,274.968z"/>
<g>
	<path style="fill:#334C5B;" d="M472,0H8C3.584,0,0,3.392,0,7.808v128C0,140.232,3.584,144,8,144h80v295.808
		C88,461.864,105.944,480,128,480h224c22.056,0,40-18.136,40-40.192V144h80c4.416,0,8-3.768,8-8.192v-128C480,3.392,476.416,0,472,0
		z M295.36,16c-3.904,24-27.208,48-55.36,48c-28.16,0-51.456-24-55.36-48H295.36z M464,128h-80c-4.416,0-8,3.392-8,7.808v304
		c0,13.24-10.768,24.192-24,24.192H128c-13.232,0-24-10.952-24-24.192v-304c0-4.416-3.584-7.808-8-7.808H16V16h152.472
		c3.992,32,34.536,64,71.528,64s67.528-32,71.528-64H464V128z"/>
	<path style="fill:#334C5B;" d="M282.344,210.152L240,252.496v-68.688c0-4.416-3.584-7.808-8-7.808h-64c-4.416,0-8,3.392-8,7.808
		V264h-16c-3.232,0-6.152,1.848-7.392,4.84s-0.552,6.384,1.736,8.672l56,55.976c1.56,1.56,3.608,2.336,5.656,2.336
		s4.096-0.784,5.656-2.352L248,291.12v68.688c0,4.424,3.584,8.192,8,8.192h64c4.416,0,8-3.768,8-8.192V280h16
		c3.232,0,6.152-2.04,7.392-5.032s0.552-6.48-1.736-8.768l-56-56.024C290.528,207.056,285.472,207.032,282.344,210.152z
		 M200,316.688L163.312,280H168c4.416,0,8-3.768,8-8.192V192h48v79.808c0,0.104,0.056,0.192,0.056,0.296
		c0.032,0.936,0.176,1.872,0.552,2.768c0,0.008,0.008,0.016,0.016,0.024c0.032,0.072,0.088,0.128,0.12,0.2
		c0.36,0.8,0.856,1.496,1.432,2.12c0.192,0.2,0.4,0.368,0.608,0.552c0.512,0.448,1.064,0.824,1.672,1.128
		c0.256,0.128,0.488,0.352,0.752,0.456c0.88,0.32,1.808,0.648,2.792,0.648h4.688L200,316.688z M320,264c-4.416,0-8,3.392-8,7.808
		V352h-48v-80.192c0-0.104-0.056-0.192-0.056-0.296c-0.032-0.936-0.176-1.872-0.552-2.768c0-0.008-0.008-0.016-0.016-0.024
		c-0.032-0.072-0.088-0.128-0.12-0.2c-0.36-0.8-0.848-1.496-1.424-2.12c-0.192-0.208-0.4-0.368-0.608-0.552
		c-0.512-0.448-1.064-0.816-1.664-1.12c-0.256-0.128-0.488-0.168-0.76-0.264c-0.888-0.328-1.816-0.464-2.8-0.464h-4.688L288,227.312
		L324.688,264H320z"/>
	<rect x="192" y="143.808" style="fill:#334C5B;" width="16" height="16"/>
	<rect x="224" y="111.808" style="fill:#334C5B;" width="16" height="16"/>
	<rect x="192" y="111.808" style="fill:#334C5B;" width="16" height="16"/>
	<rect x="160" y="111.808" style="fill:#334C5B;" width="16" height="16"/>
	<rect x="248" y="415.808" style="fill:#334C5B;" width="16" height="16"/>
	<rect x="280" y="415.808" style="fill:#334C5B;" width="16" height="16"/>
	<rect x="312" y="415.808" style="fill:#334C5B;" width="16" height="16"/>
	<rect x="280" y="383.808" style="fill:#334C5B;" width="16" height="16"/>
</g>
</svg>