<!DOCTYPE svg PUBLIC "-//W3C//DTD SVG 1.1//EN" "http://www.w3.org/Graphics/SVG/1.1/DTD/svg11.dtd">
<!-- Uploaded to: SVG Repo, www.svgrepo.com, Transformed by: SVG Repo Mixer Tools -->
<svg height="64px" width="64px" version="1.1" id="Layer_1" xmlns="http://www.w3.org/2000/svg" xmlns:xlink="http://www.w3.org/1999/xlink" viewBox="0 0 512 512" xml:space="preserve" fill="#000000">
<g id="SVGRepo_bgCarrier" stroke-width="0"/>
<g id="SVGRepo_tracerCarrier" stroke-linecap="round" stroke-linejoin="round"/>
<g id="SVGRepo_iconCarrier"> <g> <path d="M472.919,512c-4.799,0-8.678-3.888-8.678-8.678v-17.356c0-4.79,3.879-8.678,8.678-8.678c4.799,0,8.678,3.888,8.678,8.678 v17.356C481.597,508.112,477.718,512,472.919,512"/> <polygon style="fill:#F8EDCD;" points="386.139,121.492 273.386,0 4.369,0 4.369,503.322 386.139,503.322 "/> <g> <path style="fill:#FFFFFF;" d="M169.19,208.271c0,33.549-27.197,60.746-60.746,60.746s-60.746-27.197-60.746-60.746 s27.197-60.746,60.746-60.746S169.19,174.722,169.19,208.271"/> <path style="fill:#FFFFFF;" d="M169.19,390.508c0,33.549-27.197,60.746-60.746,60.746s-60.746-27.197-60.746-60.746 s27.197-60.746,60.746-60.746S169.19,356.959,169.19,390.508"/> </g> <g> <polygon style="fill:#D1C6A7;" points="273.385,0 273.385,121.492 386.137,121.492 "/> <path style="fill:#D1C6A7;" d="M342.749,234.305H212.58c-4.799,0-8.678-3.888-8.678-8.678s3.879-8.678,8.678-8.678h130.169 c4.799,0,8.678,3.888,8.678,8.678S347.548,234.305,342.749,234.305"/> <path style="fill:#D1C6A7;" d="M325.393,199.593H212.58c-4.799,0-8.678-3.888-8.678-8.678s3.879-8.678,8.678-8.678h112.814 c4.799,0,8.678,3.888,8.678,8.678S330.192,199.593,325.393,199.593"/> </g> <path style="fill:#13A085;" d="M108.444,234.305c-2.3,0-4.504-0.903-6.135-2.543l-17.356-17.356c-3.393-3.393-3.393-8.878,0-12.271 s8.878-3.393,12.271,0l10.275,10.275l19.968-26.693c2.864-3.844,8.296-4.625,12.149-1.753c3.836,2.872,4.625,8.313,1.753,12.149 l-25.973,34.712c-1.51,2.022-3.827,3.28-6.335,3.462C108.861,234.296,108.644,234.305,108.444,234.305"/> <g> <path style="fill:#D1C6A7;" d="M342.749,416.542H212.58c-4.799,0-8.678-3.888-8.678-8.678s3.879-8.678,8.678-8.678h130.169 c4.799,0,8.678,3.888,8.678,8.678S347.548,416.542,342.749,416.542"/> <path style="fill:#D1C6A7;" d="M325.393,381.831H212.58c-4.799,0-8.678-3.888-8.678-8.678c0-4.79,3.879-8.678,8.678-8.678h112.814 c4.799,0,8.678,3.888,8.678,8.678C334.071,377.943,330.192,381.831,325.393,381.831"/> </g> <path style="fill:#13A085;" d="M108.444,416.542c-2.3,0-4.504-0.902-6.135-2.543l-17.356-17.356c-3.393-3.393-3.393-8.878,0-12.271 c3.393-3.393,8.878-3.393,12.271,0l10.275,10.275l19.968-26.693c2.864-3.836,8.296-4.625,12.149-1.753 c3.836,2.872,4.625,8.313,1.753,12.149l-25.973,34.712c-1.51,2.022-3.827,3.28-6.335,3.463 C108.861,416.534,108.644,416.542,108.444,416.542"/> <path style="fill:#F0C419;" d="M507.631,425.22l-34.712,60.746l-34.712-60.746V17.226C438.207,7.715,445.922,0,455.433,0h34.972 c9.511,0,17.226,7.715,17.226,17.226V425.22z"/> <polygon style="fill:#FB7B76;" points="438.207,95.458 507.631,95.458 507.631,60.746 438.207,60.746 "/> </g> </g>
</svg>