<svg id="Layer_1" viewBox="0 0 24 24" xmlns="http://www.w3.org/2000/svg" data-name="Layer 1"><path d="m11 3c.539 0 1.046.02 1.509.057-.069 3.141.283 4.78.299 4.852.087.396.404.699.803.77.12.021 2.965.512 5.992.24.582.005 1.098-.429 1.081-1.03.019-.213-.084-.756-.329-.928l-5.721-5.444c-.137-.13-.308-.219-.493-.256-.863-.173-1.92-.261-3.141-.261-4.076 0-8.074.988-8.243 1.03-.358.09-.638.37-.728.728-.042.168-1.03 4.178-1.03 9.243s.988 9.074 1.03 9.243c.09.358.37.638.728.728.093.023 2.319.575 5.142.862.54.058 1.042-.343 1.096-.894.056-.549-.344-1.04-.894-1.096-1.838-.188-3.437-.499-4.263-.677-.265-1.272-.838-4.452-.838-8.166s.573-6.894.838-8.166c1.238-.267 4.215-.834 7.162-.834zm6.494 3.999c-1.167-.011-2.193-.111-2.835-.19-.068-.552-.146-1.441-.158-2.656l2.993 2.847zm4.631 4.853c-1.059-1.117-3.168-1.128-4.223-.013l-5.42 5.418c-.861.868-1.365 2.026-1.419 3.263l-.062 1.438c-.037.569.475 1.08 1.043 1.042l1.429-.063c1.232-.055 2.386-.564 3.247-1.432l5.417-5.417c1.157-1.165 1.152-3.065-.011-4.236zm-1.405 2.824-5.417 5.417c-.508.512-1.19.812-1.918.845l-.339.015.015-.347c.033-.738.331-1.427.838-1.938l5.42-5.418c.323-.342 1.099-.325 1.408.035.363.389.361 1.021-.008 1.392z"/></svg>