<svg id="Layer_1" viewBox="0 0 24 24" xmlns="http://www.w3.org/2000/svg" data-name="Layer 1"><path d="m11.886 2.5c0-1.381 1.119-2.5 2.5-2.5s2.5 1.119 2.5 2.5-1.119 2.5-2.5 2.5-2.5-1.119-2.5-2.5zm10.114 17.5c-1.105 0-2 .895-2 2s.895 2 2 2 2-.895 2-2-.895-2-2-2zm-7.669-10.271-1.955 4.078 3.22 2.465c.689.527 1.208 1.237 1.501 2.054l1.315 3.668c.279.78-.126 1.639-.906 1.919-.759.277-1.64-.118-1.918-.905l-1.315-3.668c-.097-.272-.271-.509-.5-.685l-4.345-3.325c-1.42-.939-1.964-2.786-1.258-4.345l1.684-3.383-3.254-1.546c-.68-.323-1.276-.773-1.772-1.339l-1.955-2.226c-.547-.623-.485-1.57.137-2.117s1.57-.485 2.117.137l1.956 2.227c.226.258.497.462.805.609l13.256 6.3c.748.355 1.066 1.25.711 1.998-.357.757-1.267 1.063-1.999.711l-5.525-2.626zm-7.936 5.017-.999.756c-.34.257-.806.27-1.16.033l-1.833-1.23c-.662-.499-1.602-.366-2.101.295-.499.662-.366 1.602.295 2.101l2.603 1.752c1.087.731 2.522.673 3.546-.144l1.608-1.283c-.862-.586-1.542-1.373-1.959-2.28z"/></svg>