<?xml version="1.0" encoding="iso-8859-1"?>
<!-- Uploaded to: SVG Repo, www.svgrepo.com, Generator: SVG Repo Mixer Tools -->
<svg height="800px" width="800px" version="1.1" id="Layer_1" xmlns="http://www.w3.org/2000/svg" xmlns:xlink="http://www.w3.org/1999/xlink" 
	 viewBox="0 0 512 512" xml:space="preserve">
<g transform="translate(1 1)">
	<path style="fill:#FFE100;" d="M502.467,305.347V204.653c0,0,0-0.853-0.853-0.853h-5.12c-19.627,0-36.693-11.947-43.52-29.013
		l-1.707-2.56c-7.68-17.92-3.413-38.4,10.24-52.053l4.267-4.267v-0.853l-71.68-71.68h-0.853l-4.267,4.267
		C375.32,61.293,354.84,65.56,336.92,57.88l-2.56-0.853c-16.213-6.827-28.16-23.893-28.16-43.52v-5.12c0-0.853,0-0.853-0.853-0.853
		H204.653c-0.853,0-0.853,0-0.853,0.853v5.12c0,19.627-11.947,36.693-29.013,43.52l-2.56,1.707c-17.92,7.68-38.4,3.413-52.053-10.24
		l-4.267-4.267h-0.853l-71.68,71.68v0.853l4.267,4.267c13.653,13.653,17.92,34.133,10.24,52.053l-0.853,2.56
		c-6.827,16.213-23.893,28.16-43.52,28.16h-5.12c-0.853,0-0.853,0-0.853,0.853V306.2c0,0,0,0,0.853,0h5.12
		c19.627,0,36.693,11.947,43.52,29.013l0.853,0.853c7.68,18.773,3.413,40.107-11.093,53.76l-3.413,3.413v0.853l71.68,71.68h0.853
		l3.413-3.413c14.507-14.507,34.987-18.773,53.76-11.093s30.72,25.6,30.72,45.227v4.267c0,0,0,0.853,0.853,0.853H306.2
		c0,0,0.853,0,0.853-0.853v-4.267c0-19.627,11.947-37.547,30.72-45.227c18.773-7.68,40.107-3.413,53.76,11.093l3.413,3.413h0.853
		l71.68-71.68v-0.853l-4.267-4.267c-13.653-13.653-17.92-34.133-10.24-52.053l0.853-2.56c5.973-16.213,23.04-28.16,42.667-28.16
		L502.467,305.347C502.467,306.2,502.467,306.2,502.467,305.347"/>
	<path style="fill:#FFA800;" d="M501.613,206.36h-5.12c-19.627,0-36.693-11.947-43.52-29.013l-1.707-2.56
		c-7.68-17.92-3.413-38.4,10.24-52.053l4.267-4.267v-0.853l-71.68-71.68h-0.853l-3.413,4.267c-2.56,2.56-5.973,5.12-9.387,7.68
		l60.587,60.587v0.853l-4.267,4.267c-13.653,13.653-17.92,34.133-10.24,52.053l0.853,2.56c6.827,16.213,23.893,42.667,43.52,42.667
		h5.12h0.853v68.267c0,0,0,0-0.853,0h-5.12c-19.627,0-36.693,30.72-43.52,48.64l-1.707,2.56c-7.68,17.92-3.413,38.4,10.24,52.053
		l4.267,4.267v0.853l-60.587,60.587c4.267,2.56,7.68,5.12,11.093,7.68l3.413,3.413h0.853l71.68-71.68v-0.853l-4.267-5.12
		c-13.653-13.653-17.92-34.133-10.24-52.053l0.853-2.56c7.68-17.92,24.747-29.013,43.52-29.013h5.12c0,0,0.853,0,0.853-0.853
		L501.613,206.36C502.467,206.36,502.467,206.36,501.613,206.36"/>
	<path style="fill:#FFFFFF;" d="M8.387,206.36h5.12c19.627,0,36.693-11.947,43.52-29.013l1.707-2.56
		c7.68-17.92,3.413-38.4-10.24-52.053l-4.267-4.267v-0.853l71.68-71.68h0.853l3.413,4.267c2.56,2.56,5.973,5.12,9.387,7.68
		l-59.733,60.587v0.853l4.267,4.267c13.653,13.653,17.92,34.133,10.24,52.053l-0.853,2.56c-7.68,16.213-24.747,42.667-44.373,42.667
		h-5.12c-0.853,0-0.853,0-0.853,0v68.267c0,0,0,0,0.853,0h5.12c19.627,0,36.693,30.72,43.52,48.64l1.707,2.56
		c7.68,17.92,3.413,38.4-10.24,52.053l-4.267,4.267v0.853l60.587,60.587c-4.267,2.56-7.68,5.12-11.093,7.68l-2.56,2.56h-0.853
		l-71.68-71.68V395.8l3.413-4.267C61.293,377.88,65.56,357.4,57.88,339.48l-0.853-2.56c-6.827-17.067-23.893-28.16-43.52-28.16
		h-5.12c0,0-0.853,0-0.853-0.853L8.387,206.36C7.533,206.36,7.533,206.36,8.387,206.36"/>
	<path style="fill:#FFE100;" d="M408.6,255c0-84.48-69.12-153.6-153.6-153.6S101.4,170.52,101.4,255S170.52,408.6,255,408.6
		S408.6,339.48,408.6,255"/>
	<path style="fill:#00DA6C;" d="M357.4,255c0,56.32-46.08,102.4-102.4,102.4S152.6,311.32,152.6,255S198.68,152.6,255,152.6
		S357.4,198.68,357.4,255"/>
	<path style="fill:#63D3FD;" d="M279.747,319.853c-3.413-1.707-5.973-5.973-5.973-10.24v-11.947c0.853-0.853,1.707-2.56,2.56-3.413
		c4.267-5.973,6.827-11.947,9.387-18.773c3.413-0.853,6.827-4.267,6.827-8.533V255c0-2.56-0.853-5.12-3.413-6.827v-17.92
		c0,0,3.413-28.16-34.133-28.16s-34.133,28.16-34.133,28.16v17.92c-1.707,1.707-3.413,4.267-3.413,6.827v11.947
		c0,3.413,1.707,5.973,4.267,7.68c3.413,13.653,11.093,23.04,11.093,23.04v11.093c0,4.267-2.56,7.68-5.973,10.24l-27.307,15.36
		c-1.707,0.853-3.413,2.56-5.12,3.413C211.48,349.72,231.96,357.4,254.147,357.4s42.667-7.68,59.733-19.627
		c-1.707-1.707-3.413-2.56-5.12-3.413L279.747,319.853z"/>
	<path d="M305.347,511H204.653c-5.12,0-9.387-4.267-9.387-9.387v-4.267c0-16.213-10.24-31.573-24.747-37.547
		c-15.36-5.973-33.28-2.56-44.373,8.533l-3.413,3.413c-3.413,3.413-9.387,3.413-12.8,0l-71.68-71.68
		c-3.413-3.413-3.413-9.387,0-12.8l3.413-3.413c11.947-11.947,15.36-29.013,8.533-44.373l-0.853-0.853
		c-5.973-14.507-19.627-23.893-35.84-23.893h-5.12c-5.12,0-9.387-4.267-9.387-9.387V204.653c0-5.12,4.267-9.387,9.387-9.387h5.12
		c16.213,0,29.867-9.387,35.84-23.893l0.853-2.56c5.973-14.507,2.56-31.573-8.533-42.667L37.4,121.88
		c-1.707-1.707-2.56-4.267-2.56-5.973c0-2.56,0.853-5.12,2.56-5.973l72.533-71.68c3.413-3.413,9.387-3.413,12.8,0l3.413,3.413
		c11.093,11.093,28.16,14.507,42.667,8.533l2.56-0.853c14.507-5.973,23.893-19.627,23.893-35.84v-5.12
		c0-5.12,4.267-9.387,9.387-9.387H306.2c4.267,0,8.533,4.267,8.533,9.387v5.12c0,16.213,9.387,29.867,23.893,35.84l2.56,0.853
		c14.507,5.973,31.573,2.56,42.667-8.533l4.267-4.267c3.413-3.413,9.387-3.413,12.8,0l71.68,71.68
		c1.707,1.707,2.56,4.267,2.56,5.973c0,2.56-0.853,5.12-2.56,6.827l-4.267,4.267c-11.093,11.093-14.507,28.16-8.533,42.667
		l0.853,2.56c5.973,14.507,20.48,23.893,35.84,23.893h5.12c5.12,0,9.387,4.267,9.387,9.387V306.2c0,5.12-4.267,9.387-9.387,9.387
		h-5.12c-16.213,0-29.867,9.387-35.84,23.893l-0.853,1.707c-5.973,14.507-2.56,31.573,8.533,42.667l4.267,4.267
		c1.707,1.707,2.56,4.267,2.56,6.827c0,2.56-0.853,5.12-2.56,6.827l-72.533,69.973c-3.413,3.413-9.387,3.413-12.8,0l-3.413-3.413
		c-11.947-11.093-29.013-15.36-44.373-8.533c-15.36,5.973-24.747,21.333-24.747,37.547v4.267
		C314.733,506.733,310.467,511,305.347,511z M212.333,493.933h85.333c1.707-22.187,15.36-40.96,35.84-49.493
		s44.373-4.267,60.587,10.24l60.587-60.587c-14.507-16.213-18.773-39.253-10.24-58.88l0.853-2.56
		c8.533-20.48,27.307-33.28,49.493-34.133v-86.187c-21.333-0.853-40.96-14.507-49.493-34.133l-0.853-2.56
		c-8.533-20.48-4.267-43.52,10.24-58.88l-60.587-60.587c-15.36,14.507-39.253,18.773-58.88,10.24l-2.56-0.853
		c-20.48-8.533-33.28-27.307-34.133-49.493h-86.187C211.48,37.4,197.827,57.027,178.2,65.56l-2.56,0.853
		c-19.627,8.533-43.52,4.267-58.88-10.24L56.173,116.76c14.507,16.213,18.773,39.253,10.24,58.88l-0.853,2.56
		c-8.533,20.48-27.307,33.28-49.493,34.133v85.333C37.4,298.52,57.027,312.173,65.56,331.8l0.853,0.853
		c8.533,20.48,4.267,43.52-10.24,60.587l60.587,60.587c16.213-14.507,40.107-17.92,60.587-10.24
		C196.973,452.973,210.627,471.747,212.333,493.933z"/>
	<path d="M255,417.133C165.4,417.133,92.867,344.6,92.867,255S165.4,92.867,255,92.867S417.133,165.4,417.133,255
		S344.6,417.133,255,417.133z M255,109.933c-80.213,0-145.067,64.853-145.067,145.067S174.787,400.067,255,400.067
		S400.067,335.213,400.067,255S335.213,109.933,255,109.933z"/>
	<path d="M255,365.933c-61.44,0-110.933-49.493-110.933-110.933S193.56,144.067,255,144.067S365.933,193.56,365.933,255
		S316.44,365.933,255,365.933z M255,161.133c-52.053,0-93.867,41.813-93.867,93.867s41.813,93.867,93.867,93.867
		s93.867-41.813,93.867-93.867S307.053,161.133,255,161.133z"/>
	<path d="M255,365.933c-23.04,0-46.08-7.68-64.853-21.333l-8.533-5.973l7.68-6.827c2.56-1.707,4.267-3.413,6.827-5.12l27.307-15.36
		c0.853-0.853,1.707-1.707,1.707-2.56v-8.533c-2.56-3.413-7.68-11.093-10.24-21.333c-3.413-3.413-5.12-7.68-5.12-12.8V255
		c0-3.413,0.853-6.827,3.413-10.24v-14.507c0-3.413-0.853-14.507,7.68-23.893c7.68-8.533,18.773-12.8,34.987-12.8
		c15.36,0,27.307,4.267,34.987,12.8c8.533,9.387,7.68,21.333,7.68,23.893v14.507c1.707,2.56,3.413,5.973,3.413,10.24v11.947
		c0,5.973-3.413,11.947-8.533,15.36c-2.56,5.973-5.12,11.947-9.387,17.067c0,0.853-0.853,0.853-0.853,1.707v8.533
		c0,0.853,0.853,1.707,1.707,2.56l29.867,14.507c2.56,0.853,5.12,2.56,6.827,5.12l7.68,6.827l-8.533,5.973
		C301.08,358.253,278.04,365.933,255,365.933z M211.48,337.773c26.453,14.507,60.587,14.507,87.04,0l-22.187-11.093
		c-6.827-3.413-11.093-10.24-11.093-17.92v-14.507l1.707-2.56c0.853-0.853,1.707-1.707,2.56-2.56
		c3.413-5.12,5.973-10.24,7.68-16.213l1.707-4.267l4.267-1.707c0,0,0.853,0,0.853-0.853V255l-3.413-2.56v-4.267V229.4
		c0,0,0.853-6.827-3.413-11.093c-4.267-4.267-11.947-6.827-22.187-6.827c-10.24,0-17.92,2.56-22.187,6.827
		c-3.413,4.267-3.413,10.24-3.413,10.24v0.853v21.333l-2.56,2.56v12.8l2.56,1.707l0.853,4.267
		c2.56,11.093,9.387,19.627,9.387,19.627l1.707,2.56v14.507c0,6.827-4.267,13.653-10.24,17.067L211.48,337.773z"/>
</g>
</svg>