<?xml version="1.0" encoding="iso-8859-1"?>
<!-- Uploaded to: SVG Repo, www.svgrepo.com, Generator: SVG Repo Mixer Tools -->
<svg version="1.1" id="Layer_1" xmlns="http://www.w3.org/2000/svg" xmlns:xlink="http://www.w3.org/1999/xlink" 
	 viewBox="0 0 480 480" xml:space="preserve">
<path style="fill:#E5E8E8;" d="M240,112c-97.048,0-176,78.952-176,176s78.952,176,176,176s176-78.952,176-176S337.048,112,240,112z
	 M240,448c-88.224,0-160-71.776-160-160s71.776-160,160-160s160,71.776,160,160S328.224,448,240,448z"/>
<path style="fill:#9CD9F1;" d="M240,144c-79.4,0-144,64.6-144,144s64.6,144,144,144s144-64.6,144-144S319.4,144,240,144z
	 M360,288.192H248c-4.416,0-8-3.768-8-8.192V168c0-4.416,3.584-8,8-8c63.928,0,120,56.168,120,120.096
	C368,284.512,364.416,288.192,360,288.192z"/>
<rect x="208" y="48.192" style="fill:#E5E8E8;" width="64" height="16"/>
<path style="fill:#DA544A;" d="M256,176.336v95.856h95.616C347.36,224.192,304,180.712,256,176.336z"/>
<path style="fill:#E5E8E8;" d="M240,96c2.68,0,8,0.096,8,0.2V80.192h-16v16.016C232,96.096,237.32,96,240,96z"/>
<g>
	<path style="fill:#334C5B;" d="M264,97.56V80.192h16c4.416,0,8-3.768,8-8.192V40c0-4.416-3.584-7.808-8-7.808h-80
		c-4.416,0-8,3.392-8,7.808v32c0,4.424,3.584,8.192,8,8.192h16V97.56C120,109.408,48,190.264,48,288c0,105.864,86.136,192,192,192
		s192-86.136,192-192C432,190.264,360,109.408,264,97.56z M208,64.192v-16h64v16H208z M248,80.192v16.016c0-0.112-5.32-0.2-8-0.2
		s-8,0.096-8,0.2V80.192H248z M240,464c-97.048,0-176-78.952-176-176s78.952-176,176-176s176,78.952,176,176S337.048,464,240,464z"
		/>
	<path style="fill:#334C5B;" d="M240,128c-88.224,0-160,71.776-160,160s71.776,160,160,160s160-71.776,160-160
		C400,199.784,328.224,128,240,128z M240,432c-79.4,0-144-64.6-144-144s64.6-144,144-144s144,64.6,144,144S319.4,432,240,432z"/>
	<path style="fill:#334C5B;" d="M248,160c-4.416,0-8,3.584-8,8v112c0,4.424,3.584,8.192,8,8.192h112c4.416,0,8-3.68,8-8.096
		C368,216.168,311.928,160,248,160z M256,272.192v-95.856c48,4.376,91.36,47.856,95.616,95.856H256z"/>
	
		<rect x="384.006" y="113.385" transform="matrix(-0.7071 0.7071 -0.7071 -0.7071 765.3723 -45.002)" style="fill:#334C5B;" width="16" height="45.256"/>
	<rect x="200" style="fill:#334C5B;" width="16" height="16"/>
	<rect x="232" style="fill:#334C5B;" width="16" height="16"/>
	<rect x="264" style="fill:#334C5B;" width="16" height="16"/>
</g>
</svg>